<?xml version="1.0" encoding="utf-8"?>
<!-- Generator: Adobe Illustrator 17.0.0, SVG Export Plug-In . SVG Version: 6.00 Build 0)  -->
<!DOCTYPE svg PUBLIC "-//W3C//DTD SVG 1.1//EN" "http://www.w3.org/Graphics/SVG/1.1/DTD/svg11.dtd">
<svg version="1.1" id="Layer_1" xmlns="http://www.w3.org/2000/svg" xmlns:xlink="http://www.w3.org/1999/xlink" x="0px" y="0px"
	 width="100px" height="100px" viewBox="0 0 100 100" enable-background="new 0 0 100 100" xml:space="preserve">
<g>
	<path fill="#11766D" d="M33.422,39.577v-1.311h0.007c0.116-8.679,6.361-15.687,17.478-15.687c11.115,0,17.36,7.008,17.476,15.687
		h0.006v1.311h16.428v-8.926h-0.01c-0.193-14.207-15.291-27.499-33.9-27.499c-18.61,0-33.707,13.292-33.901,27.499h-0.01v8.926
		H33.422z"/>
	<g>
		<rect x="16.996" y="39.577" fill="#FFAB07" width="16.426" height="59.093"/>
		<rect x="68.389" y="39.577" fill="#FFAB07" width="16.428" height="57.875"/>
	</g>
</g>
<rect x="35.45" y="90.911" fill="none" width="61.287" height="13.084"/>
<text transform="matrix(1 0 0 1 35.4507 98.0176)" display="none" fill="#CDCFD0" font-family="'ISOCTEUR'" font-size="11.0184">LOCK</text>
<ellipse fill="#CDCFD0" cx="50.789" cy="42.414" rx="19.588" ry="20.51"/>
<g>
	<path fill="#414042" d="M50.936,24.947c-9.161,0-16.587,7.427-16.587,16.587c0,9.161,7.426,16.587,16.587,16.587
		c9.161,0,16.587-7.426,16.587-16.587C67.524,32.374,60.097,24.947,50.936,24.947z M65.415,40.743l-8.795,0.879l-2.574-0.421
		l2.437-0.922l8.8-0.879C65.347,39.843,65.391,40.292,65.415,40.743z M51.799,43.257l0.07,0.702l-0.413-0.574l0.023-0.139
		c0.072-0.022,0.142-0.048,0.21-0.079L51.799,43.257z M50.094,39.784l-0.07-0.704l0.412,0.573l-0.016,0.099
		c-0.086,0.026-0.167,0.059-0.247,0.097L50.094,39.784z M52.613,40.748l0.072-0.088l0.704-0.071l-0.573,0.412L52.7,40.981
		C52.678,40.901,52.648,40.822,52.613,40.748z M52.62,40.535l-0.113,0.011c-0.044-0.073-0.093-0.143-0.146-0.209l0.044-0.098
		l0.662-0.25L52.62,40.535z M52.31,40.137l-0.103,0.039c-0.062-0.06-0.128-0.114-0.199-0.164l0.017-0.104l0.575-0.414L52.31,40.137z
		 M49.77,40.108l-0.094-0.042l-0.251-0.662l0.547,0.446l0.01,0.104C49.907,40,49.836,40.051,49.77,40.108z M49.61,40.261
		c-0.055,0.06-0.106,0.123-0.153,0.189l-0.126-0.021L48.93,39.87l0.643,0.291L49.61,40.261z M49.333,40.654
		c-0.036,0.07-0.068,0.145-0.096,0.221l-0.132,0.012l-0.554-0.453l0.706,0.116L49.333,40.654z M49.169,41.105
		c-0.016,0.076-0.028,0.153-0.036,0.233l-0.128,0.048l-0.652-0.294l0.711-0.071L49.169,41.105z M49.129,41.584
		c0.004,0.078,0.012,0.153,0.025,0.228l-0.101,0.072l-0.696-0.113l0.644-0.244L49.129,41.584z M49.085,42.02l0.122,0.02
		c0.024,0.077,0.056,0.151,0.087,0.223l-0.081,0.099l-0.702,0.07L49.085,42.02z M49.279,42.487l0.13-0.013
		c0.042,0.066,0.087,0.13,0.137,0.19l-0.055,0.121l-0.659,0.25L49.279,42.487z M49.587,42.886l0.127-0.048
		c0.056,0.052,0.114,0.101,0.177,0.145l-0.023,0.136l-0.573,0.411L49.587,42.886z M52.093,42.921l0.127,0.057l0.25,0.661
		l-0.548-0.448l-0.014-0.14C51.972,43.012,52.034,42.968,52.093,42.921z M52.273,42.755c0.056-0.058,0.108-0.121,0.155-0.187
		l0.116,0.019l0.422,0.588l-0.644-0.291L52.273,42.755z M52.552,42.376c0.04-0.072,0.073-0.149,0.103-0.227l0.112-0.012l0.541,0.443
		l-0.689-0.114L52.552,42.376z M52.721,41.934c0.02-0.081,0.036-0.164,0.045-0.249l0.099-0.038l0.636,0.287l-0.695,0.07
		L52.721,41.934z M52.775,41.464c-0.002-0.087-0.011-0.173-0.024-0.257l0.098-0.071l0.698,0.114l-0.677,0.256L52.775,41.464z
		 M52.997,41.03l0.65-0.467l2.339-0.234l-2.197,0.83L52.997,41.03z M53.6,40.437l-0.799,0.08l0.507-0.62l2.198-0.831L53.6,40.437z
		 M53.23,39.789l-0.75,0.285l0.33-0.73l1.908-1.372L53.23,39.789z M52.705,39.259l-0.651,0.468l0.13-0.79l1.488-1.82L52.705,39.259z
		 M52.061,38.881l-0.508,0.622l-0.08-0.797l0.967-2.142L52.061,38.881z M51.572,39.685l0.448-0.548l-0.114,0.696l-0.084,0.061
		c-0.077-0.042-0.157-0.077-0.24-0.107L51.572,39.685z M51.372,39.723c-0.085-0.02-0.172-0.034-0.261-0.043l-0.036-0.094
		l0.291-0.645l0.07,0.703L51.372,39.723z M51.011,39.416l-0.283-0.749l0.38-2.32l0.234,2.337L51.011,39.416z M50.936,39.582
		l-0.041,0.093c-0.09,0.003-0.178,0.012-0.263,0.028l-0.059-0.082l0.114-0.698L50.936,39.582z M50.465,39.472l-0.467-0.649
		l-0.234-2.339l0.831,2.196L50.465,39.472z M49.953,39.668l-0.62-0.506l-0.831-2.199l1.371,1.907L49.953,39.668z M49.509,39.99
		l-0.73-0.331l-1.372-1.908l1.818,1.487L49.509,39.99z M49.151,40.401l-0.8-0.131l-1.798-1.472l2.141,0.966L49.151,40.401z
		 M48.924,40.905l-0.806,0.081l-2.165-0.977l2.344,0.383L48.924,40.905z M48.834,41.45l-0.732,0.278l-2.319-0.379l2.313-0.231
		L48.834,41.45z M48.114,41.861l0.791,0.13l-0.652,0.468l-2.337,0.234L48.114,41.861z M48.301,42.584l0.796-0.08l-0.508,0.621
		l-2.196,0.83L48.301,42.584z M48.667,43.235l0.749-0.284l-0.33,0.731l-1.907,1.371L48.667,43.235z M49.19,43.767l0.65-0.467
		l-0.129,0.791l-1.487,1.819L49.19,43.767z M49.832,44.146l0.506-0.619l0.08,0.799l-0.965,2.139L49.832,44.146z M50.32,43.346
		l-0.447,0.546l0.114-0.698l0.112-0.081c0.066,0.036,0.136,0.065,0.207,0.092L50.32,43.346z M50.544,43.277
		c0.073,0.016,0.146,0.03,0.221,0.038l0.05,0.132l-0.29,0.643l-0.07-0.704L50.544,43.277z M50.88,43.618l0.283,0.75l-0.379,2.317
		l-0.233-2.337L50.88,43.618z M50.955,43.451l0.059-0.13c0.075-0.003,0.149-0.01,0.221-0.022l0.084,0.117l-0.114,0.696
		L50.955,43.451z M51.426,43.565l0.468,0.652l0.233,2.337l-0.83-2.198L51.426,43.565z M51.94,43.373l0.621,0.508l0.831,2.196
		L52.02,44.17L51.94,43.373z M52.387,43.055l0.73,0.33l1.371,1.906l-1.819-1.488L52.387,43.055z M52.724,42.616l0.783,0.128
		l1.838,1.504l-2.143-0.967L52.724,42.616z M52.949,42.119l0.789-0.079l2.118,0.956l-2.293-0.375L52.949,42.119z M53.037,41.583
		l0.766-0.29l2.319,0.379l-2.362,0.237L53.037,41.583z M65.262,39.272l-8.311,0.83l7.814-2.954
		C64.982,37.84,65.149,38.549,65.262,39.272z M64.726,37.026l-8.272,3.126l-2.596,0.26l2.118-1.522l8.271-3.126
		C64.426,36.176,64.586,36.597,64.726,37.026z M64.195,35.644l-7.814,2.954l6.778-4.873C63.554,34.34,63.901,34.981,64.195,35.644z
		 M63.09,33.617l-7.177,5.158l-2.441,0.922l1.651-2.017l7.175-5.158C62.581,32.877,62.844,33.242,63.09,33.617z M61.19,31.281
		c0.364,0.364,0.706,0.746,1.028,1.14l-6.777,4.872l5.283-6.458C60.882,30.98,61.038,31.128,61.19,31.281z M60.628,30.748
		l-5.594,6.836l-2.119,1.523l1.072-2.377l5.597-6.839C59.943,30.159,60.292,30.445,60.628,30.748z M59.481,29.815l-5.286,6.46
		l3.435-7.611C58.272,28.998,58.89,29.383,59.481,29.815z M57.515,28.604l-3.637,8.057l-1.652,2.02l0.42-2.573l3.638-8.06
		C56.702,28.213,57.113,28.399,57.515,28.604z M56.164,28l-3.437,7.616l1.348-8.242C54.789,27.53,55.486,27.739,56.164,28z
		 M53.949,27.346l-1.428,8.724l-1.073,2.378l-0.26-2.594l1.428-8.725C53.065,27.181,53.51,27.253,53.949,27.346z M50.936,27.033
		c0.522,0,1.039,0.029,1.552,0.083l-1.348,8.241l-0.831-8.309C50.517,27.038,50.726,27.033,50.936,27.033z M50.179,27.053
		l0.879,8.797l-0.421,2.575l-0.922-2.439l-0.88-8.801C49.278,27.12,49.727,27.076,50.179,27.053z M48.706,27.204l0.832,8.315
		l-2.958-7.822C47.274,27.48,47.983,27.314,48.706,27.204z M46.457,27.736l3.13,8.279l0.26,2.597l-1.522-2.117l-3.131-8.284
		C45.607,28.033,46.028,27.874,46.457,27.736z M45.076,28.262l2.958,7.827l-4.883-6.793C43.766,28.902,44.41,28.556,45.076,28.262z
		 M43.042,29.365l5.168,7.191l0.923,2.441l-2.018-1.652l-5.169-7.191C42.3,29.874,42.666,29.611,43.042,29.365z M40.683,31.281
		c0.371-0.372,0.76-0.72,1.163-1.044l4.883,6.793l-6.476-5.3C40.393,31.578,40.535,31.428,40.683,31.281z M40.165,31.826l6.855,5.61
		l1.523,2.118l-2.377-1.072l-6.86-5.613C39.576,32.51,39.861,32.162,40.165,31.826z M39.23,32.973l6.481,5.303l-7.638-3.448
		C38.41,34.184,38.796,33.563,39.23,32.973z M38.013,34.943l8.085,3.649l1.999,1.635l-2.6-0.425l-8.042-3.629
		C37.622,35.755,37.808,35.344,38.013,34.943z M37.408,36.294l7.596,3.429l-8.224-1.347C36.936,37.665,37.146,36.969,37.408,36.294z
		 M36.751,38.503l8.708,1.425l2.401,1.084l-2.57,0.257l-8.756-1.432C36.587,39.386,36.659,38.942,36.751,38.503z M36.436,41.533
		c0-0.528,0.028-1.052,0.084-1.57l8.273,1.354l-8.344,0.835C36.441,41.946,36.436,41.741,36.436,41.533z M36.456,42.282l8.83-0.883
		l2.573,0.42l-2.44,0.923l-8.834,0.883C36.522,43.181,36.478,42.734,36.456,42.282z M36.604,43.753l8.347-0.834l-7.852,2.969
		C36.881,45.193,36.715,44.48,36.604,43.753z M37.137,46.012l8.311-3.142l2.595-0.26l-2.119,1.523l-8.311,3.142
		C37.435,46.861,37.275,46.44,37.137,46.012z M37.663,47.394l7.855-2.97l-6.817,4.901C38.306,48.706,37.959,48.062,37.663,47.394z
		 M38.772,49.433l7.215-5.186l2.439-0.922l-1.653,2.019l-7.211,5.183C39.28,50.174,39.017,49.809,38.772,49.433z M40.683,51.786
		c-0.37-0.369-0.717-0.756-1.041-1.157l6.814-4.898l-5.314,6.494C40.986,52.083,40.833,51.937,40.683,51.786z M41.238,52.313
		l5.624-6.873l2.117-1.522l-1.073,2.378l-5.626,6.875C41.922,52.902,41.574,52.616,41.238,52.313z M42.384,53.247l5.316-6.496
		l-3.455,7.654C43.6,54.069,42.978,53.682,42.384,53.247z M44.361,54.465l3.656-8.1l1.651-2.017l-0.421,2.574l-3.656,8.099
		C45.172,54.855,44.762,54.67,44.361,54.465z M45.711,55.069l3.455-7.654l-1.355,8.283C47.094,55.541,46.392,55.331,45.711,55.069z
		 M47.938,55.725l1.434-8.765l1.072-2.376l0.26,2.596l-1.433,8.76C48.821,55.889,48.377,55.817,47.938,55.725z M50.936,56.035
		c-0.518,0-1.03-0.028-1.537-0.081l1.354-8.278l0.834,8.344C51.371,56.028,51.154,56.035,50.936,56.035z M51.717,56.013
		l-0.882-8.829l0.421-2.573l0.922,2.441l0.882,8.829C52.616,55.945,52.169,55.99,51.717,56.013z M53.188,55.86l-0.833-8.341
		l2.965,7.844C54.625,55.581,53.914,55.748,53.188,55.86z M55.442,55.324l-3.137-8.303l-0.26-2.594l1.523,2.119l3.138,8.299
		C56.292,55.023,55.872,55.184,55.442,55.324z M56.825,54.794l-2.966-7.842l4.89,6.803C58.133,54.15,57.49,54.498,56.825,54.794z
		 M58.858,53.684l-5.174-7.2l-0.922-2.439l2.019,1.652l5.171,7.196C59.599,53.173,59.233,53.438,58.858,53.684z M61.19,51.786
		c-0.363,0.364-0.744,0.706-1.137,1.025l-4.886-6.798l6.475,5.3C61.496,51.474,61.346,51.633,61.19,51.786z M61.73,51.216
		l-6.855-5.609l-1.522-2.117l2.378,1.074l6.854,5.608C62.318,50.532,62.033,50.881,61.73,51.216z M62.663,50.068l-6.475-5.298
		l7.626,3.443C63.479,48.856,63.095,49.477,62.663,50.068z M63.874,48.097l-8.072-3.643l-2.039-1.668l2.549,0.417l8.117,3.664
		C64.263,47.285,64.078,47.696,63.874,48.097z M64.476,46.746l-7.671-3.462l8.3,1.358C64.948,45.361,64.738,46.063,64.476,46.746z
		 M65.131,44.514l-8.783-1.437l-2.354-1.062l2.621-0.262l8.728,1.428C65.293,43.631,65.222,44.075,65.131,44.514z M57.113,41.703
		l8.308-0.83c0.01,0.219,0.015,0.439,0.015,0.66c0,0.511-0.027,1.017-0.079,1.518L57.113,41.703z"/>
</g>
<path fill="none" d="M63.314,19.901c10.867,6.795,14.166,21.115,7.369,31.982c-6.794,10.867-21.112,14.165-31.98,7.368
	c-10.868-6.793-14.168-21.11-7.371-31.977C38.129,16.405,52.446,13.107,63.314,19.901z"/>
<text transform="matrix(0.3686 -0.9296 0.9296 0.3686 27.9815 34.6821)" display="none"><tspan x="0" y="0" display="inline" fill="#CDCFD0" font-family="'ISOCTEUR'" font-size="11.0184">M</tspan><tspan x="8.348" y="0.098" display="inline" fill="#CDCFD0" font-family="'ISOCTEUR'" font-size="11.0184" rotate="20.294">A</tspan><tspan x="16.132" y="3.077" display="inline" fill="#CDCFD0" font-family="'ISOCTEUR'" font-size="11.0184" rotate="40.807">G</tspan><tspan x="22.398" y="8.622" display="inline" fill="#CDCFD0" font-family="'ISOCTEUR'" font-size="11.0184" rotate="61.203">N</tspan><tspan x="26.33" y="15.957" display="inline" fill="#CDCFD0" font-family="'ISOCTEUR'" font-size="11.0184" rotate="81.605">E</tspan><tspan x="27.445" y="24.238" display="inline" fill="#CDCFD0" font-family="'ISOCTEUR'" font-size="11.0184" rotate="102.021">T</tspan><tspan x="25.626" y="32.359" display="inline" fill="#CDCFD0" font-family="'ISOCTEUR'" font-size="11.0184" rotate="122.441">I</tspan><tspan x="21.05" y="39.366" display="inline" fill="#CDCFD0" font-family="'ISOCTEUR'" font-size="11.0184" rotate="142.923">C</tspan></text>
<g>
	<polygon fill="#CDCFD0" points="50.907,41.02 14.944,48.321 14.944,80.045 50.907,87.502 86.869,80.045 86.869,48.321 	"/>
	<path fill="#414042" d="M83.762,76.626c0-0.726,0.574-1.311,1.292-1.34v-1.441c-0.718-0.029-1.292-0.616-1.292-1.341
		c0-0.724,0.574-1.311,1.292-1.34v-1.441c-0.718-0.029-1.292-0.616-1.292-1.34c0-0.725,0.574-1.312,1.292-1.341v-1.44
		c-0.718-0.028-1.292-0.615-1.292-1.34c0-0.725,0.574-1.31,1.292-1.341v-1.44c-0.718-0.03-1.292-0.616-1.292-1.341
		c0-0.724,0.574-1.31,1.292-1.339v-1.441c-0.718-0.028-1.292-0.616-1.292-1.339c0-0.725,0.574-1.313,1.292-1.341v-1.442
		c-0.718-0.028-1.292-0.615-1.292-1.34c0-0.725,0.574-1.311,1.292-1.341v-0.751l-34.147-6.932l-34.148,6.932v0.747
		c0.736,0.009,1.331,0.607,1.331,1.345c0,0.738-0.594,1.336-1.331,1.345v1.432c0.736,0.009,1.331,0.607,1.331,1.345
		c0,0.737-0.594,1.335-1.331,1.343v1.433c0.736,0.008,1.331,0.607,1.331,1.344c0,0.738-0.594,1.337-1.331,1.344v1.435
		c0.736,0.008,1.331,0.605,1.331,1.343c0,0.738-0.594,1.336-1.331,1.343v1.434c0.736,0.008,1.331,0.606,1.331,1.345
		c0,0.737-0.594,1.336-1.331,1.344v1.432c0.736,0.009,1.331,0.607,1.331,1.345c0,0.739-0.594,1.336-1.331,1.345v1.432
		c0.736,0.008,1.331,0.606,1.331,1.345c0,0.737-0.594,1.336-1.331,1.343v0.6l34.148,7.08l34.147-7.08v-0.603
		C84.336,77.936,83.762,77.351,83.762,76.626z"/>
	<g>
		<path fill="#CDCFD0" d="M21.276,78.763c2.493,0.414,29.735,4.34,29.735,4.34h-0.207c0,0,27.24-3.927,29.735-4.34
			c-2.446,0.661-29.528,5.434-29.528,5.434l-0.103,0.022l-0.104-0.022C50.803,84.197,23.722,79.424,21.276,78.763z"/>
		<path fill="#CDCFD0" d="M80.538,49.759c-2.493-0.414-29.734-4.341-29.734-4.341h0.206c0,0-27.24,3.927-29.735,4.341
			c2.446-0.661,29.528-5.434,29.528-5.434l0.104-0.022l0.103,0.022C51.01,44.325,78.092,49.098,80.538,49.759z"/>
	</g>
	<g>
		<g>
			<path fill="#CDCFD0" d="M29.268,57.331c0,0.365,0,0.547,0,0.911c0,2.624-0.471,4.286-1.522,5.117c0,0.029,0,0.043,0,0.072
				c1.264,0.809,1.757,2.725,1.757,5.431c0,0.834,0,1.252,0,2.086c0,3.948-1.222,5.852-3.58,5.433
				c-1.484-0.264-2.225-0.395-3.708-0.659c0-7.678,0-15.356,0-23.034c1.423-0.247,2.135-0.371,3.558-0.619
				C28.218,51.645,29.268,53.396,29.268,57.331z M24.573,55.688c0,2.522,0,3.784,0,6.306c0.369-0.011,0.553-0.017,0.922-0.029
				c0.879-0.027,1.415-0.678,1.415-2.653c0-0.55,0-0.825,0-1.375c0-1.763-0.364-2.492-1.2-2.389
				C25.255,55.604,25.028,55.632,24.573,55.688z M24.573,65.403c0,2.932,0,4.399,0,7.33c0.54,0.069,0.81,0.103,1.35,0.172
				c0.794,0.101,1.222-0.446,1.222-2.286c0-0.863,0-1.295,0-2.158c0-2.3-0.45-3.017-1.522-3.038
				C25.204,65.415,24.993,65.411,24.573,65.403z"/>
			<path fill="#CDCFD0" d="M31.99,50.99c0.943-0.164,1.415-0.246,2.358-0.41c0,9.099,0,18.198,0,27.297
				c-0.943-0.168-1.415-0.251-2.358-0.419C31.991,68.635,31.99,59.813,31.99,50.99z"/>
			<path fill="#CDCFD0" d="M43.973,68.148c0,1.63,0,2.445,0,4.075c0,4.91-1.201,7.496-3.516,7.075
				c-2.315-0.421-3.515-3.217-3.515-7.732c0.001-4.889,0-9.779,0-14.668c0-4.513,1.2-7.305,3.515-7.717
				c2.315-0.412,3.516,2.18,3.516,7.089c0,1.192,0,1.787,0,2.979c-0.892,0.049-1.337,0.074-2.229,0.124c0-1.281,0-1.921,0-3.202
				c0-2.135-0.471-2.887-1.222-2.791c-0.75,0.095-1.223,0.945-1.223,3.019c0,5.227,0,10.453,0,15.68
				c0,2.074,0.473,2.883,1.223,2.981c0.751,0.098,1.222-0.61,1.222-2.745c0-1.708,0-2.561,0-4.269
				C42.635,68.087,43.081,68.107,43.973,68.148z"/>
			<path fill="#CDCFD0" d="M48.453,69.692c-0.971-7.019-1.962-14.034-2.981-21.046c0.986-0.171,1.48-0.257,2.465-0.429
				c0.606,4.863,1.195,9.727,1.779,14.593c0.017,0,0.026,0,0.043,0c0.592-4.999,1.177-10,1.779-14.998
				c0.9,0.157,1.349,0.235,2.25,0.391c-1.024,7.207-2.014,14.419-2.978,21.634c0,4.386-0.002,6.578-0.002,10.964
				c-0.943-0.168-1.414-0.251-2.357-0.419C48.452,76.106,48.453,73.969,48.453,69.692z"/>
			<path fill="#CDCFD0" d="M62.322,67.939c0,1.546,0,2.32,0,3.866c0,4.658-1.2,7.537-3.516,7.958
				c-2.316,0.421-3.516-2.249-3.516-7.302c0-5.473,0-10.946,0-16.419c0-5.052,1.2-7.725,3.516-7.314
				c2.316,0.412,3.516,3.286,3.516,7.943c0,1.131,0,1.697,0,2.827c-0.892-0.049-1.337-0.074-2.229-0.124c0-1.281,0-1.922,0-3.202
				c0-2.135-0.471-3.006-1.222-3.102c-0.75-0.096-1.222,0.678-1.222,2.874c0,5.535,0,11.069,0,16.604
				c0,2.196,0.472,2.925,1.222,2.827c0.751-0.098,1.222-0.929,1.222-3.063c0-1.708,0-2.561,0-4.269
				C60.984,68.002,61.43,67.981,62.322,67.939z"/>
			<path fill="#CDCFD0" d="M64.83,50.121c0.943,0.164,1.414,0.246,2.357,0.41c0,7.828,0,15.655,0,23.483
				c1.552-0.198,2.329-0.296,3.881-0.494c0,1.488,0,2.23,0,3.717c-2.495,0.443-3.743,0.665-6.238,1.108
				C64.83,68.937,64.83,59.529,64.83,50.121z"/>
			<path fill="#CDCFD0" d="M75.525,62.291c1.295,0.033,1.944,0.05,3.238,0.083c0,1.333,0,2,0,3.333
				c-1.295,0.032-1.943,0.047-3.238,0.079c0,2.866,0,4.3,0,7.166c1.629-0.208,2.444-0.312,4.073-0.52c0,1.316,0,1.974,0,3.29
				c-2.572,0.457-3.859,0.686-6.431,1.142c0.001-8.431,0.001-16.862,0.001-25.294c2.573,0.447,3.858,0.67,6.431,1.117
				c0,1.316,0,1.976,0,3.292c-1.629-0.201-2.444-0.303-4.073-0.504C75.525,58.202,75.525,59.565,75.525,62.291z"/>
		</g>
	</g>
</g>
</svg>
